<?xml version="1.0" encoding="UTF-8" standalone="no"?>
<!-- Created with Inkscape (http://www.inkscape.org/) -->

<svg
   xmlns:dc="http://purl.org/dc/elements/1.1/"
   xmlns:cc="http://creativecommons.org/ns#"
   xmlns:rdf="http://www.w3.org/1999/02/22-rdf-syntax-ns#"
   xmlns:svg="http://www.w3.org/2000/svg"
   xmlns="http://www.w3.org/2000/svg"
   xmlns:sodipodi="http://sodipodi.sourceforge.net/DTD/sodipodi-0.dtd"
   xmlns:inkscape="http://www.inkscape.org/namespaces/inkscape"
   version="1.1"
   id="svg2"
   xml:space="preserve"
   width="413.35999"
   height="286.90668"
   viewBox="0 0 413.35999 286.90668"
   sodipodi:docname="casinoverhuur.svg"
   inkscape:version="0.92.3 (2405546, 2018-03-11)"><metadata
     id="metadata8"><rdf:RDF><cc:Work
         rdf:about=""><dc:format>image/svg+xml</dc:format><dc:type
           rdf:resource="http://purl.org/dc/dcmitype/StillImage" /><dc:title></dc:title></cc:Work></rdf:RDF></metadata><defs
     id="defs6" /><sodipodi:namedview
     pagecolor="#ffffff"
     bordercolor="#666666"
     borderopacity="1"
     objecttolerance="10"
     gridtolerance="10"
     guidetolerance="10"
     inkscape:pageopacity="0"
     inkscape:pageshadow="2"
     inkscape:window-width="756"
     inkscape:window-height="480"
     id="namedview4"
     showgrid="false"
     inkscape:zoom="0.2908214"
     inkscape:cx="350.27167"
     inkscape:cy="-22.902989"
     inkscape:window-x="0"
     inkscape:window-y="0"
     inkscape:window-maximized="0"
     inkscape:current-layer="g12" /><g
     id="g10"
     inkscape:groupmode="layer"
     inkscape:label="ink_ext_XXXXXX"
     transform="matrix(1.3333333,0,0,-1.3333333,0,286.90667)"><g
       id="g12"
       transform="scale(0.1)"><path
         d="m 872.035,1866.07 c 0,0 84.817,-94.71 98.949,-294.02 0,0 161.146,135.7 243.136,166.8 0,0 -36.76,100.36 -33.93,175.29 0,0 -137.11,-67.15 -308.155,-48.07"
         style="fill:#292726;fill-opacity:1;fill-rule:nonzero;stroke:none"
         id="path14"
         inkscape:connector-curvature="0" /><path
         d="m 1304.23,2069.63 c 0,0 50.89,82.69 132.52,76.33 81.64,-6.36 106.02,-91.17 64.68,-155.85 -41.35,-64.66 -102.84,-179.17 -108.14,-199.31 0,0 -25.45,-2.12 -54.07,-13.78 0,0 -58.31,65.73 -131.46,110.25 l -2.84,49.73 c -0.7,12.28 -13.05,20.39 -24.59,16.16 l -35.12,-12.88 c 0,0 -77.4,79.52 0,143.13 59.87,49.21 159.02,-13.78 159.02,-13.78"
         style="fill:#ed1c24;fill-opacity:1;fill-rule:nonzero;stroke:none"
         id="path16"
         inkscape:connector-curvature="0" /><path
         d="m 1542.77,2006.02 -100.71,-169.63 c 0,0 64.74,-22.52 100.71,14.84 18.38,19.08 39.58,5.65 34.64,-15.55 0,0 -1.42,-21.91 -14.14,-30.39 0,0 17.67,-21.2 39.58,-9.9 0,0 -4.24,9.9 3.53,33.22 7.78,23.33 28.83,19.46 31.81,-1.41 4.24,-29.68 57.24,-60.78 103.19,-44.53 45.94,16.26 89.8,55.04 58.66,131.47 -23.33,57.24 -106.25,45.21 -127.22,34.63 -10.98,-5.54 -21.91,2.29 -24.03,8.48 -2.12,6.18 0.53,19.61 25.44,18.02 24.92,-1.59 79.52,35.52 57.79,115.56 -10.34,38.02 -77.93,86.93 -137.83,44.53 -59.9,-42.41 -46.72,-97.3 -32.33,-118.21 9.81,-14.27 24.91,-25.45 24.91,-25.45 0,0 19.08,-10.07 10.6,-20.67 -8.59,-10.74 -20.14,-5.3 -30.22,3.71 -10.07,9.01 -24.38,31.28 -24.38,31.28"
         style="fill:#292726;fill-opacity:1;fill-rule:nonzero;stroke:none"
         id="path18"
         inkscape:connector-curvature="0" /><path
         d="m 1762.58,1755.82 c 0,0 133.59,62.19 47.93,193.65 0,0 0.84,55.14 72.93,69.97 72.09,14.85 119.45,-50.89 111.67,-131.81 0,0 54.43,15.9 76.34,93.65 4.06,14.43 20.49,9.89 22.62,-5.65 2.12,-15.56 9.89,-36.05 38.86,-49.48 28.98,-13.43 5.66,-21.91 -4.23,-21.2 -9.9,0.7 -77.04,-3.54 -101.78,-36.05 0,0 -12.73,-14.84 19.08,-21.2 15.67,-3.13 100.97,-33.93 84.11,-108.85 -18.29,-81.29 -99.8,-100.2 -185.89,-86.93 0,0 -67.14,55.83 -181.64,103.9"
         style="fill:#ed1c24;fill-opacity:1;fill-rule:nonzero;stroke:none"
         id="path20"
         inkscape:connector-curvature="0" /><path
         d="m 1763.45,612.922 c -84.37,-45.852 -182.42,-69.602 -286.32,-63.442 -266.72,15.84 -482.857,230.692 -500.153,497.33 -20.832,321.19 244.313,587.3 565.193,568.08 264.49,-15.84 479.49,-227.51 499.46,-491.72 5.88,-77.95 -5.21,-152.67 -29.79,-221.029 l 127.43,45.898 c 9.22,43.301 14.16,88.151 14.16,134.161 0,366.67 -308.05,662.75 -678.95,643 -326.47,-17.39 -590.593,-281.51 -607.976,-607.98 -19.75,-370.892 276.326,-678.958 642.996,-678.958 117.93,0 228.44,32.008 323.61,87.578 l -69.66,87.082"
         style="fill:#292726;fill-opacity:1;fill-rule:nonzero;stroke:none"
         id="path22"
         inkscape:connector-curvature="0" /><path
         d="m 1196.49,1280.55 -83.26,48.16 c -3.85,2.23 -8.79,0.84 -10.93,-3.06 l -34.75,-63.42 c -2.29,-4.18 -0.5,-9.41 3.86,-11.33 l 86.09,-37.75 c 4.21,-1.85 9.14,-0.22 11.44,3.76 l 30.45,52.84 c 2.18,3.78 0.89,8.62 -2.9,10.8"
         style="fill:#ed1c24;fill-opacity:1;fill-rule:nonzero;stroke:none"
         id="path24"
         inkscape:connector-curvature="0" /><path
         d="m 1422.19,1542.52 -71.02,-13.65 c -4.67,-0.9 -7.57,-5.62 -6.27,-10.19 l 25.78,-90.4 c 1.27,-4.43 5.66,-7.19 10.19,-6.42 l 60.13,10.21 c 4.3,0.73 7.2,4.81 6.48,9.13 l -15.97,94.84 c -0.74,4.39 -4.95,7.32 -9.32,6.48"
         style="fill:#ed1c24;fill-opacity:1;fill-rule:nonzero;stroke:none"
         id="path26"
         inkscape:connector-curvature="0" /><path
         d="m 1785.42,1465.07 -60.87,39.05 c -4.01,2.57 -9.36,1.15 -11.57,-3.07 l -43.61,-83.27 c -2.14,-4.07 -0.86,-9.1 2.96,-11.67 l 50.6,-34.03 c 3.63,-2.44 8.54,-1.48 10.99,2.14 l 53.79,79.73 c 2.49,3.7 1.46,8.72 -2.29,11.12"
         style="fill:#ed1c24;fill-opacity:1;fill-rule:nonzero;stroke:none"
         id="path28"
         inkscape:connector-curvature="0" /><path
         d="m 1157.21,1006.02 c -1.07,4.23 -5.36,6.81 -9.61,5.75 l -93.3,-23.348 c -4.32,-1.094 -6.9,-5.512 -5.72,-9.813 l 19.17,-69.718 c 1.26,-4.59 6.19,-7.11 10.65,-5.45 l 88.1,32.778 c 4.31,1.613 6.73,6.203 5.6,10.66 l -14.89,59.141"
         style="fill:#ed1c24;fill-opacity:1;fill-rule:nonzero;stroke:none"
         id="path30"
         inkscape:connector-curvature="0" /><path
         d="m 1359.43,751.379 -51.34,32.902 c -3.69,2.36 -8.58,1.289 -10.94,-2.39 l -52.01,-80.903 c -2.42,-3.738 -1.27,-8.738 2.54,-11.066 l 61.7,-37.684 c 4.07,-2.476 9.39,-0.949 11.5,3.321 l 41.76,84.211 c 2.05,4.128 0.66,9.128 -3.21,11.609"
         style="fill:#ed1c24;fill-opacity:1;fill-rule:nonzero;stroke:none"
         id="path32"
         inkscape:connector-curvature="0" /><path
         d="m 1964.39,1224.96 c -0.65,4.4 -4.81,7.42 -9.2,6.66 l -94.78,-16.32 c -4.31,-0.74 -7.21,-4.83 -6.47,-9.14 l 10.25,-60.11 c 0.78,-4.54 4.84,-7.76 9.44,-7.49 l 93.83,5.58 c 4.75,0.28 8.24,4.58 7.54,9.29 l -10.61,71.53"
         style="fill:#ed1c24;fill-opacity:1;fill-rule:nonzero;stroke:none"
         id="path34"
         inkscape:connector-curvature="0" /><path
         d="m 1930.22,882.078 -81.24,51.473 c -3.69,2.347 -8.58,1.25 -10.93,-2.442 l -32.71,-51.461 c -2.47,-3.878 -1.62,-9.007 1.97,-11.886 l 61.61,-46.352 16.14,23.66 c 7.49,10.969 18.77,18.809 31.68,21.989 l 15.83,3.91 c 2.47,3.711 1.41,8.73 -2.35,11.109"
         style="fill:#ed1c24;fill-opacity:1;fill-rule:nonzero;stroke:none"
         id="path36"
         inkscape:connector-curvature="0" /><path
         d="m 1643.68,741.09 c -1.42,4.129 -5.91,6.351 -10.05,4.941 l -57.74,-19.609 c -4.35,-1.492 -6.9,-6.012 -5.9,-10.5 l 20.33,-91.781 c 1.02,-4.653 5.82,-7.411 10.36,-5.993 l 68.95,21.793 c 4.25,1.34 6.57,5.918 5.12,10.129 l -31.07,91.02"
         style="fill:#ed1c24;fill-opacity:1;fill-rule:nonzero;stroke:none"
         id="path38"
         inkscape:connector-curvature="0" /><path
         d="m 1243.21,1463.52 c -2.67,3.57 -7.76,4.22 -11.25,1.47 l -56.79,-44.77 c -3.74,-2.95 -4.15,-8.47 -0.88,-11.93 l 64.45,-68.43 c 3.16,-3.35 8.33,-3.79 12,-1.02 l 48.7,36.71 c 3.48,2.63 4.19,7.59 1.56,11.09 l -57.79,76.88"
         style="fill:#292726;fill-opacity:1;fill-rule:nonzero;stroke:none"
         id="path40"
         inkscape:connector-curvature="0" /><path
         d="m 1615.24,1543.84 -71.65,9.77 c -4.72,0.65 -8.98,-2.89 -9.21,-7.65 l -4.47,-93.89 c -0.22,-4.6 3.05,-8.62 7.6,-9.35 l 60.23,-9.55 c 4.32,-0.68 8.37,2.26 9.06,6.58 l 15.2,94.96 c 0.7,4.41 -2.35,8.53 -6.76,9.13"
         style="fill:#292726;fill-opacity:1;fill-rule:nonzero;stroke:none"
         id="path42"
         inkscape:connector-curvature="0" /><path
         d="m 1814.31,1272.91 c 2.35,-3.69 7.23,-4.79 10.92,-2.46 l 81.37,51.29 c 3.77,2.37 4.84,7.39 2.38,11.1 l -39.96,60.26 c -2.63,3.97 -8.1,4.83 -11.82,1.86 l -73.47,-58.63 c -3.61,-2.87 -4.47,-7.99 -2.01,-11.88 l 32.59,-51.54"
         style="fill:#292726;fill-opacity:1;fill-rule:nonzero;stroke:none"
         id="path44"
         inkscape:connector-curvature="0" /><path
         d="m 1145.08,1088.98 3.6,60.88 c 0.26,4.36 -3.06,8.11 -7.43,8.37 l -96,5.82 c -4.44,0.27 -8.24,-3.17 -8.41,-7.62 l -2.71,-72.26 c -0.18,-4.77 3.76,-8.65 8.52,-8.41 l 93.88,4.74 c 4.59,0.23 8.28,3.88 8.55,8.48"
         style="fill:#292726;fill-opacity:1;fill-rule:nonzero;stroke:none"
         id="path46"
         inkscape:connector-curvature="0" /><path
         d="m 1208.49,881.41 c -2.79,3.371 -7.77,3.828 -11.15,1.051 l -74.17,-61.231 c -3.43,-2.832 -3.86,-7.941 -0.95,-11.308 l 47.31,-54.692 c 3.12,-3.601 8.65,-3.761 11.96,-0.339 l 65.42,67.507 c 3.2,3.301 3.4,8.493 0.47,12.032 l -38.89,46.98"
         style="fill:#292726;fill-opacity:1;fill-rule:nonzero;stroke:none"
         id="path48"
         inkscape:connector-curvature="0" /><path
         d="m 1972.23,1059.06 -95.63,10.25 c -4.34,0.47 -8.25,-2.68 -8.71,-7.03 l -6.6,-60.62 c -0.49,-4.57 2.53,-8.789 7.03,-9.789 l 91.78,-20.312 c 4.65,-1.02 9.18,2.152 9.8,6.882 l 9.36,71.699 c 0.58,4.42 -2.59,8.44 -7.03,8.92"
         style="fill:#292726;fill-opacity:1;fill-rule:nonzero;stroke:none"
         id="path50"
         inkscape:connector-curvature="0" /><path
         d="m 1762.85,818.531 c -2.8,3.367 -7.78,3.84 -11.16,1.059 l -47.02,-38.82 c -3.55,-2.93 -4.32,-8.059 -1.8,-11.899 l 51.56,-78.609 c 2.61,-3.981 8.07,-4.871 11.81,-1.922 l 56.74,44.82 c 3.5,2.77 4.04,7.86 1.19,11.289 l -61.32,74.082"
         style="fill:#292726;fill-opacity:1;fill-rule:nonzero;stroke:none"
         id="path52"
         inkscape:connector-curvature="0" /><path
         d="m 1492.91,724.719 -60.56,7.211 c -4.33,0.519 -8.27,-2.571 -8.8,-6.91 l -11.52,-95.489 c -0.54,-4.422 2.68,-8.422 7.11,-8.851 l 71.97,-7.008 c 4.74,-0.461 8.86,3.238 8.9,8.008 l 0.85,93.992 c 0.04,4.598 -3.38,8.5 -7.95,9.047"
         style="fill:#292726;fill-opacity:1;fill-rule:nonzero;stroke:none"
         id="path54"
         inkscape:connector-curvature="0" /><path
         d="m 1898.06,817.809 -81.18,-160.598 c -3.24,-6.422 2.67,-13.652 9.6,-11.731 l 195.49,53.848 c 7.79,2.133 14.25,7.613 17.64,14.953 l 84.05,181.688 c 2.54,5.492 -2.72,11.359 -8.46,9.441 l -189.29,-63.5 c -12.09,-4.051 -22.1,-12.711 -27.85,-24.101"
         style="fill:#ed1c24;fill-opacity:1;fill-rule:nonzero;stroke:none"
         id="path56"
         inkscape:connector-curvature="0" /><path
         d="m 1816.56,607.02 145.3,-192.571 c 4.6,-6.097 12.33,-8.961 19.81,-7.328 l 228.55,49.82 c 7.59,1.661 10.84,10.68 6.05,16.789 l -156.19,199.731 c -6.23,7.969 -16.62,11.461 -26.4,8.859 l -210.35,-55.711 c -8.57,-2.269 -12.11,-12.507 -6.77,-19.589"
         style="fill:#ed1c24;fill-opacity:1;fill-rule:nonzero;stroke:none"
         id="path58"
         inkscape:connector-curvature="0" /><path
         d="m 2062.68,693.75 164.54,-211.191 c 5,-6.43 15.09,-4.981 18.1,2.582 l 71.72,180.199 c 2.59,6.531 1.65,13.961 -2.52,19.621 L 2156.47,900 c -3.46,4.719 -10.71,3.98 -13.16,-1.328 l -83.38,-181.094 c -3.62,-7.828 -2.55,-17.019 2.75,-23.828"
         style="fill:#ed1c24;fill-opacity:1;fill-rule:nonzero;stroke:none"
         id="path60"
         inkscape:connector-curvature="0" /><path
         d="m 1912.6,605.488 c -16.63,6.203 -33.68,1.66 -38.08,-10.136 -4.41,-11.813 5.5,-26.411 22.14,-32.622 16.63,-6.199 33.68,-1.66 38.08,10.149 4.41,11.801 -5.51,26.402 -22.14,32.609"
         style="fill:#ffffff;fill-opacity:1;fill-rule:nonzero;stroke:none"
         id="path62"
         inkscape:connector-curvature="0" /><path
         d="m 2012.86,566.84 c -16.63,6.199 -33.69,1.66 -38.09,-10.141 -4.4,-11.808 5.51,-26.41 22.14,-32.617 16.63,-6.203 33.68,-1.66 38.09,10.148 4.4,11.801 -5.51,26.391 -22.14,32.61"
         style="fill:#ffffff;fill-opacity:1;fill-rule:nonzero;stroke:none"
         id="path64"
         inkscape:connector-curvature="0" /><path
         d="m 2008.89,726.73 c 13.55,11.469 19.79,26.372 13.95,33.258 -5.84,6.891 -21.57,3.184 -35.11,-8.289 -13.55,-11.48 -19.79,-26.359 -13.95,-33.258 5.85,-6.902 21.57,-3.191 35.11,8.289"
         style="fill:#ffffff;fill-opacity:1;fill-rule:nonzero;stroke:none"
         id="path66"
         inkscape:connector-curvature="0" /><path
         d="m 1925.11,816.078 c -13.53,-11.469 -19.78,-26.359 -13.94,-33.258 5.85,-6.89 21.56,-3.179 35.1,8.289 13.55,11.469 19.79,26.36 13.95,33.262 -5.84,6.899 -21.56,3.188 -35.11,-8.293"
         style="fill:#ffffff;fill-opacity:1;fill-rule:nonzero;stroke:none"
         id="path68"
         inkscape:connector-curvature="0" /><path
         d="m 2117.22,526.328 c -16.63,6.203 -33.69,1.66 -38.09,-10.137 -4.41,-11.812 5.5,-26.41 22.13,-32.621 16.64,-6.199 33.69,-1.66 38.1,10.149 4.4,11.801 -5.51,26.402 -22.14,32.609"
         style="fill:#ffffff;fill-opacity:1;fill-rule:nonzero;stroke:none"
         id="path70"
         inkscape:connector-curvature="0" /><path
         d="m 2135,667.949 c 11.26,5.653 13.94,23.09 5.98,38.949 -7.96,15.872 -23.54,24.153 -34.8,18.5 -11.26,-5.648 -13.94,-23.097 -5.98,-38.957 7.96,-15.863 23.55,-24.152 34.8,-18.492"
         style="fill:#ffffff;fill-opacity:1;fill-rule:nonzero;stroke:none"
         id="path72"
         inkscape:connector-curvature="0" /><path
         d="m 2186.3,647.539 c -7.96,15.859 -23.54,24.141 -34.8,18.492 -11.26,-5.652 -13.94,-23.09 -5.98,-38.961 7.96,-15.859 23.55,-24.14 34.81,-18.5 11.26,5.66 13.93,23.102 5.97,38.969"
         style="fill:#ffffff;fill-opacity:1;fill-rule:nonzero;stroke:none"
         id="path74"
         inkscape:connector-curvature="0" /><path
         d="m 2194.7,607.191 c -11.26,-5.652 -13.93,-23.089 -5.97,-38.961 7.95,-15.871 23.54,-24.14 34.8,-18.492 11.26,5.653 13.94,23.094 5.98,38.961 -7.96,15.86 -23.55,24.141 -34.81,18.492"
         style="fill:#ffffff;fill-opacity:1;fill-rule:nonzero;stroke:none"
         id="path76"
         inkscape:connector-curvature="0" /><path
         d="m 2181.66,768.66 c 11.26,5.66 13.93,23.102 5.97,38.969 -7.96,15.859 -23.54,24.141 -34.8,18.48 -11.26,-5.64 -13.94,-23.078 -5.98,-38.949 7.96,-15.859 23.55,-24.14 34.81,-18.5"
         style="fill:#ffffff;fill-opacity:1;fill-rule:nonzero;stroke:none"
         id="path78"
         inkscape:connector-curvature="0" /><path
         d="m 2192.17,727.789 c 7.96,-15.867 23.55,-24.148 34.81,-18.488 11.26,5.64 13.93,23.09 5.97,38.949 -7.95,15.871 -23.54,24.148 -34.8,18.5 -11.26,-5.66 -13.94,-23.102 -5.98,-38.961"
         style="fill:#ffffff;fill-opacity:1;fill-rule:nonzero;stroke:none"
         id="path80"
         inkscape:connector-curvature="0" /><path
         d="m 2276.16,689.41 c -7.96,15.871 -23.55,24.141 -34.81,18.5 -11.26,-5.648 -13.93,-23.101 -5.97,-38.969 7.95,-15.851 23.54,-24.14 34.8,-18.48 11.26,5.641 13.94,23.078 5.98,38.949"
         style="fill:#ffffff;fill-opacity:1;fill-rule:nonzero;stroke:none"
         id="path82"
         inkscape:connector-curvature="0" /><path
         d="m 1254.4,998.141 c 0,0 31.1,-13.422 56.55,9.189 25.44,22.62 79.87,96.13 79.87,96.13 0,0 2.82,12.41 -39.58,16.45 0,0 48.06,29.18 99.65,0 l 113.79,-69.46 c 0,0 30,-24.03 49.12,-4.42 20.68,21.2 -4.77,48.24 -4.77,48.24 l -56.72,71.03 c 0,0 -7.95,12.19 -19.61,0 -11.66,-12.19 -33.39,-43.47 -33.39,-43.47 0,0 -43.48,29.16 -78.46,27.56 l 102.84,125.11 c 0,0 31.37,27.73 25.97,54.59 0,0 5.83,-41.3 23.35,-65.2 l 110.76,-140.47 c 0,0 58.31,-81.63 20.68,-131.99 -37.64,-50.36 -91.65,-41.879 -131.44,-25.442 -39.78,16.422 -82.72,55.652 -107.63,88.522 0,0 -7.95,11.13 -19.61,-2.12 -11.67,-13.25 -65.74,-77.929 -65.74,-77.929 0,0 -51.41,-62.551 -125.63,23.68"
         style="fill:#ed1c24;fill-opacity:1;fill-rule:nonzero;stroke:none"
         id="path84"
         inkscape:connector-curvature="0" /><path
         d="m 1421.71,888.172 c 0,0 63.81,14.617 74.41,73.578 0,0 10.13,-55.672 76.89,-73.691 l -151.3,0.113"
         style="fill:#ed1c24;fill-opacity:1;fill-rule:nonzero;stroke:none"
         id="path86"
         inkscape:connector-curvature="0" /><path
         d="m 416.602,125.289 c -26.657,22.383 -33.704,51.793 -33.704,76.91 0,17.77 5.825,48.41 31.559,71.391 19.609,17.16 45.348,27.57 85.484,27.57 16.856,0 26.961,-1.219 39.219,-2.75 10.113,-1.539 19,-3.371 26.961,-4.289 3.067,-0.301 3.984,-1.531 3.984,-3.07 0,-2.129 -0.609,-5.199 -1.222,-14.403 -0.613,-8.57 -0.613,-22.976 -0.918,-28.179 -0.309,-3.68 -1.227,-6.438 -3.68,-6.438 -2.14,0 -2.758,2.149 -2.758,5.52 -0.304,8.269 -3.675,17.461 -10.414,24.199 -9.195,8.879 -27.269,15.32 -52.09,15.32 -23.593,0 -38.601,-4.289 -50.859,-14.711 -19.918,-17.16 -24.82,-42.269 -24.82,-67.711 0,-61.886 47.801,-91.296 83.953,-91.296 23.898,0 37.074,1.839 47.801,13.789 4.593,5.199 8.269,12.558 9.187,17.461 0.617,3.976 1.227,5.199 3.371,5.199 1.84,0 3.067,-2.449 3.067,-4.59 0,-3.063 -3.067,-25.742 -5.821,-34.621 -1.23,-4.59 -2.453,-5.82 -7.05,-7.66 -10.723,-4.2894 -31.25,-5.8206 -48.715,-5.8206 -36.77,0 -68.024,7.6606 -92.535,28.1796"
         style="fill:#ed1c24;fill-opacity:1;fill-rule:nonzero;stroke:none"
         id="path88"
         inkscape:connector-curvature="0" /><path
         d="m 697.59,180.449 c 1.219,0 1.527,0.61 1.219,1.531 l -25.43,66.18 c -0.305,0.922 -0.609,2.449 -1.227,2.449 -0.918,0 -1.222,-1.527 -1.527,-2.449 l -26.047,-65.879 c -0.613,-1.222 0,-1.832 0.918,-1.832 z m -57.61,-14.41 c -1.527,0 -1.835,-0.301 -2.453,-1.828 l -14.398,-34.93 c -2.758,-6.441 -3.981,-12.871 -3.981,-15.929 0,-4.602 2.454,-7.352 10.723,-7.352 h 3.984 c 3.372,0 3.981,-1.23 3.981,-2.77 0,-2.14 -1.527,-2.75 -4.285,-2.75 -8.887,0 -21.449,0.918 -30.031,0.918 -2.758,0 -17.157,-0.918 -31.25,-0.918 -3.375,0 -4.903,0.61 -4.903,2.75 0,1.54 0.918,2.77 3.063,2.77 2.453,0 5.515,0.301 7.968,0.301 12.254,1.828 16.852,9.801 22.364,22.98 l 70.472,163.918 c 3.063,7.36 5.211,10.422 7.965,10.422 3.985,0 5.211,-2.461 7.969,-8.281 6.437,-14.391 51.477,-121.02 68.633,-160.551 10.422,-23.59 18.078,-26.957 22.976,-27.879 3.989,-0.609 7.051,-0.91 10.114,-0.91 2.453,0 3.675,-0.93 3.675,-2.77 0,-2.14 -1.531,-2.75 -11.636,-2.75 -9.504,0 -29.114,0 -51.785,0.61 -4.903,0.308 -7.969,0.308 -7.969,2.14 0,1.54 0.617,2.45 3.375,2.77 1.836,0.301 3.672,2.75 2.453,5.82 l -20.844,52.391 c -0.609,1.527 -1.527,1.828 -2.754,1.828 H 639.98"
         style="fill:#ed1c24;fill-opacity:1;fill-rule:nonzero;stroke:none"
         id="path90"
         inkscape:connector-curvature="0" /><path
         d="m 804.23,103.852 c -4.289,1.828 -5.21,3.058 -5.21,8.878 0,14.098 1.222,30.34 1.531,34.622 0,3.988 1.226,6.738 3.371,6.738 2.449,0 2.758,-2.442 2.758,-4.289 0,-3.36 0.918,-8.879 2.453,-13.473 5.816,-19.308 26.043,-25.738 42.894,-25.738 23.286,0 37.375,14.699 37.375,33.09 0,11.34 -2.754,22.679 -26.652,36.769 l -15.625,9.192 c -31.867,18.691 -42.281,36.148 -42.281,59.129 0,31.859 30.636,52.39 68.015,52.39 17.469,0 31.25,-2.441 38.301,-4.289 2.453,-0.609 3.68,-1.531 3.68,-3.359 0,-3.371 -0.922,-10.731 -0.922,-31.25 0,-5.524 -1.223,-8.282 -3.371,-8.282 -1.836,0 -2.754,1.54 -2.754,4.59 0,2.461 -1.23,10.418 -7.051,17.16 -3.984,4.899 -12.558,12.258 -30.023,12.258 -19.301,0 -36.77,-10.109 -36.77,-27.879 0,-11.64 4.289,-20.828 28.492,-34.32 l 11.036,-6.117 c 35.539,-19.613 46.574,-39.531 46.574,-63.121 0,-19.301 -7.356,-34.93 -26.965,-48.719 -12.871,-9.1914 -30.645,-10.7226 -45.043,-10.7226 -15.625,0 -32.176,1.5312 -43.813,6.7426"
         style="fill:#ed1c24;fill-opacity:1;fill-rule:nonzero;stroke:none"
         id="path92"
         inkscape:connector-curvature="0" /><path
         d="m 978.277,222.121 c 0,39.52 0,46.867 -0.308,55.149 -0.61,8.878 -3.367,11.949 -9.192,13.781 -3.062,0.918 -6.433,1.23 -9.8,1.23 -2.762,0 -4.293,0.61 -4.293,3.059 0,1.531 2.14,2.148 6.433,2.148 10.113,0 28.496,-0.617 36.156,-0.617 6.737,0 24.207,0.617 34.617,0.617 3.37,0 5.52,-0.617 5.52,-2.148 0,-2.449 -1.53,-3.059 -4.29,-3.059 -2.76,0 -4.9,-0.312 -7.96,-0.922 -7.36,-1.218 -9.51,-4.91 -10.12,-14.089 -0.61,-8.282 -0.61,-15.629 -0.61,-55.149 V 176.16 c 0,-25.129 0,-45.969 1.22,-56.988 0.93,-7.051 2.76,-11.043 10.73,-12.262 3.68,-0.609 9.81,-0.91 13.79,-0.91 3.06,0 4.29,-1.539 4.29,-2.77 0,-1.832 -2.15,-2.75 -5.21,-2.75 -17.77,0 -36.15,0.918 -43.508,0.918 -6.129,0 -24.512,-0.918 -35.234,-0.918 -3.375,0 -5.211,0.918 -5.211,2.75 0,1.231 0.918,2.77 4.289,2.77 3.984,0 7.047,0.301 9.496,0.91 5.52,1.219 7.051,4.91 7.969,12.559 1.226,10.722 1.226,31.562 1.226,56.691 v 45.961"
         style="fill:#ed1c24;fill-opacity:1;fill-rule:nonzero;stroke:none"
         id="path94"
         inkscape:connector-curvature="0" /><path
         d="m 1119.84,136.02 c 0.61,-20.219 3.98,-26.348 9.19,-28.188 4.6,-1.531 9.81,-1.832 14.1,-1.832 3.06,0 4.59,-1.23 4.59,-2.77 0,-2.14 -2.45,-2.75 -6.13,-2.75 -17.46,0 -30.02,0.918 -34.92,0.918 -2.46,0 -15.32,-0.918 -29.11,-0.918 -3.68,0 -6.13,0.301 -6.13,2.75 0,1.54 1.84,2.77 4.29,2.77 3.67,0 8.58,0.301 12.25,1.219 7.05,1.832 7.97,8.883 8.28,31.562 l 2.45,154.418 c 0,5.211 1.84,8.891 4.6,8.891 3.37,0 7.04,-3.981 11.64,-8.578 3.37,-3.371 43.81,-44.742 83.03,-83.032 18.39,-18.089 54.23,-54.859 58.22,-58.531 h 1.22 l -2.76,115.821 c -0.3,15.929 -2.76,20.531 -9.19,22.98 -3.98,1.531 -10.42,1.531 -14.09,1.531 -3.37,0 -4.29,1.231 -4.29,2.758 0,2.152 2.75,2.449 6.74,2.449 14.1,0 28.49,-0.617 34.31,-0.617 3.07,0 13.18,0.617 26.36,0.617 3.67,0 6.13,-0.297 6.13,-2.449 0,-1.527 -1.54,-2.758 -4.6,-2.758 -2.76,0 -4.91,0 -8.28,-0.922 -7.35,-2.14 -9.49,-6.738 -9.8,-21.449 l -3.06,-164.23 c 0,-5.8206 -2.15,-8.2698 -4.29,-8.2698 -4.6,0 -8.28,2.7618 -11.03,5.5198 -16.85,15.621 -50.56,47.789 -78.75,75.07 -29.41,28.18 -57.9,59.738 -63.11,64.328 h -0.92 l 3.06,-106.308"
         style="fill:#ed1c24;fill-opacity:1;fill-rule:nonzero;stroke:none"
         id="path96"
         inkscape:connector-curvature="0" /><path
         d="m 1511.44,194.238 c 0,57.602 -34.62,93.141 -78.13,93.141 -30.03,0 -65.26,-15.938 -65.26,-80.277 0,-53.614 30.63,-95.903 81.5,-95.903 18.99,0 61.89,8.891 61.89,83.039 z m -183.23,4.903 c 0,44.418 31.25,102.019 113.06,102.019 68.03,0 110.3,-37.68 110.3,-97.43 0,-59.75 -43.5,-106.6206 -113.05,-106.6206 -78.44,0 -110.31,55.7616 -110.31,102.0316"
         style="fill:#ed1c24;fill-opacity:1;fill-rule:nonzero;stroke:none"
         id="path98"
         inkscape:connector-curvature="0" /><path
         d="m 1585.61,272.059 c -6.13,14.39 -10.12,16.863 -19.92,19.3 -3.97,0.922 -8.27,0.922 -10.41,0.922 -2.45,0 -3.06,1.231 -3.06,2.758 0,2.152 2.75,2.449 6.74,2.449 14.39,0 29.72,-0.617 39.21,-0.617 6.74,0 20.84,0.617 34.32,0.617 3.36,0 6.43,-0.617 6.43,-2.449 0,-1.84 -1.84,-2.758 -4.29,-2.758 -4.28,0 -8.27,-0.312 -10.42,-1.84 -1.83,-1.222 -2.75,-2.75 -2.75,-5.211 0,-3.371 2.45,-10.421 6.12,-19.609 l 45.35,-116.73 h 0.92 c 11.64,26.961 46.27,110.91 52.7,128.07 1.23,3.371 2.45,7.359 2.45,9.488 0,2.77 -1.22,3.692 -3.67,4.602 -3.07,0.918 -7.36,1.23 -10.73,1.23 -2.45,0 -4.6,0.918 -4.6,2.758 0,1.832 2.46,2.449 7.66,2.449 13.49,0 25.44,-0.617 28.81,-0.617 4.59,0 17.16,0.617 25.43,0.617 3.37,0 5.52,-0.617 5.52,-2.449 0,-1.84 -1.54,-2.758 -4.3,-2.758 -2.75,0 -8.57,0.309 -13.17,-3.062 -3.37,-2.449 -7.04,-6.438 -14.1,-22.981 -10.72,-24.508 -17.77,-38.609 -32.48,-70.468 -17.15,-38 -29.71,-66.489 -35.85,-79.668 -6.73,-15.012 -9.19,-18.9926 -12.86,-18.9926 -3.68,0 -5.83,3.3706 -11.03,15.6206 l -68.02,159.329"
         style="fill:#ed1c24;fill-opacity:1;fill-rule:nonzero;stroke:none"
         id="path100"
         inkscape:connector-curvature="0" /><path
         d="m 1806.24,222.121 c 0,39.52 0,46.867 -0.31,55.149 -0.61,8.878 -3.06,11.652 -11.65,14.089 -2.14,0.61 -6.74,0.922 -10.72,0.922 -2.75,0 -4.59,0.918 -4.59,2.758 0,1.832 2.14,2.449 6.12,2.449 14.09,0 31.25,-0.617 38.92,-0.617 8.57,0 68.32,-0.301 73.53,0 4.91,0.32 9.19,1.238 11.34,1.539 1.54,0.309 3.06,1.231 4.29,1.231 1.53,0 1.83,-1.231 1.83,-2.45 0,-1.851 -1.53,-4.91 -2.14,-16.859 -0.31,-2.754 -0.92,-14.094 -1.53,-17.16 -0.31,-1.231 -0.91,-4.281 -3.06,-4.281 -1.84,0 -2.15,1.218 -2.15,3.371 0,1.828 -0.3,6.429 -1.84,9.488 -2.15,4.602 -4.28,8.281 -17.77,9.5 -4.59,0.609 -36.77,1.23 -42.29,1.23 -1.22,0 -1.83,-0.929 -1.83,-2.449 V 215.68 c 0,-1.532 0.31,-2.758 1.83,-2.758 6.14,0 41.07,0 47.19,0.609 6.44,0.617 10.42,1.239 12.87,3.989 2.15,1.839 3.07,3.371 4.29,3.371 1.23,0 2.15,-1.219 2.15,-2.762 0,-1.527 -0.62,-5.82 -2.15,-18.988 -0.62,-5.211 -1.22,-15.629 -1.22,-17.469 0,-2.141 -0.31,-5.82 -2.77,-5.82 -1.83,0 -2.45,0.918 -2.45,2.148 -0.3,2.75 -0.3,6.121 -0.91,9.488 -1.54,5.211 -4.91,9.203 -15.01,10.121 -4.91,0.602 -35.55,1.219 -42.29,1.219 -1.22,0 -1.53,-1.219 -1.53,-2.758 v -20.84 c 0,-8.871 -0.31,-30.941 0,-38.601 0.61,-17.77 8.88,-21.758 36.46,-21.758 7.05,0 18.38,0.32 25.43,3.379 6.74,3.059 9.81,8.578 11.64,19.301 0.62,2.758 1.23,3.98 3.07,3.98 2.15,0 2.45,-3.371 2.45,-6.121 0,-5.828 -2.15,-23.59 -3.68,-28.808 -1.84,-6.7426 -4.29,-6.7426 -14.4,-6.7426 -20.22,0 -36.46,0.3126 -49.63,0.9216 -13.18,0.309 -23.29,0.617 -31.25,0.617 -3.07,0 -8.89,-0.308 -15.33,-0.308 -6.43,-0.309 -13.17,-0.61 -18.69,-0.61 -3.37,0 -5.2,0.918 -5.2,2.75 0,1.231 0.91,2.77 4.28,2.77 3.99,0 7.05,0.301 9.51,0.91 5.51,1.219 7.04,6.129 7.95,13.789 1.24,11.031 1.24,31.563 1.24,55.461 v 45.961"
         style="fill:#ed1c24;fill-opacity:1;fill-rule:nonzero;stroke:none"
         id="path102"
         inkscape:connector-curvature="0" /><path
         d="m 2010.91,201.891 c 0,-2.75 0.62,-3.68 2.45,-4.602 5.82,-1.828 13.79,-2.449 20.53,-2.449 10.72,0 14.41,0.93 19,4.301 8.27,5.82 17.47,17.16 17.47,38.597 0,36.774 -25.13,46.274 -41.06,46.274 -6.75,0 -13.18,-0.313 -15.94,-0.922 -1.83,-0.61 -2.45,-1.539 -2.45,-3.68 z m -34.31,20.23 c 0,39.52 0,46.867 -0.31,55.149 -0.61,8.878 -3.06,11.652 -11.65,14.089 -2.14,0.61 -6.73,0.922 -10.72,0.922 -2.75,0 -4.59,0.918 -4.59,2.758 0,1.832 2.14,2.449 6.12,2.449 14.1,0 31.25,-0.617 36.77,-0.617 9.19,0 33.7,0.617 41.98,0.617 17.15,0 36.76,-1.527 51.17,-11.039 7.66,-5.199 18.99,-18.371 18.99,-35.84 0,-19.3 -11.03,-36.461 -37.37,-57.597 23.89,-29.422 42.89,-53.012 59.13,-69.25 15.01,-15.012 24.51,-16.231 28.8,-17.16 2.76,-0.602 4.28,-0.602 6.43,-0.602 2.15,0 3.37,-1.539 3.37,-2.77 0,-2.14 -1.83,-2.75 -5.2,-2.75 h -25.75 c -15.01,0 -22.36,1.532 -29.41,5.2 -11.64,5.82 -21.75,18.082 -36.77,38.3 -10.72,14.098 -22.06,31.571 -25.43,35.551 -1.53,1.528 -3.05,1.84 -4.9,1.84 l -24.2,0.609 c -1.23,0 -2.15,-0.609 -2.15,-2.152 v -3.668 c 0,-24.211 0.31,-44.43 1.54,-55.461 0.91,-7.66 2.14,-12.57 10.42,-13.789 3.97,-0.609 9.8,-0.91 13.17,-0.91 2.14,0 3.37,-1.539 3.37,-2.77 0,-1.832 -2.15,-2.75 -5.52,-2.75 -15.62,0 -37.99,0.918 -41.97,0.918 -5.22,0 -22.37,-0.918 -33.1,-0.918 -3.37,0 -5.2,0.918 -5.2,2.75 0,1.231 0.92,2.77 4.29,2.77 3.98,0 7.05,0.301 9.5,0.91 5.51,1.219 7.04,6.129 7.97,13.789 1.22,11.031 1.22,31.563 1.22,55.461 v 45.961"
         style="fill:#ed1c24;fill-opacity:1;fill-rule:nonzero;stroke:none"
         id="path104"
         inkscape:connector-curvature="0" /><path
         d="m 2326.52,212.621 c 0.61,0 1.53,0.301 1.53,1.828 v 5.52 c 0,39.531 -0.31,49.019 -0.61,57.301 -0.62,8.878 -3.07,11.652 -11.64,14.089 -2.15,0.61 -6.74,0.922 -10.42,0.922 -3.07,0 -4.59,0.918 -4.59,2.758 0,1.832 1.83,2.449 5.82,2.449 14.39,0 33.39,-0.617 40.44,-0.617 6.43,0 24.2,0.617 34.62,0.617 3.98,0 5.83,-0.617 5.83,-2.449 0,-1.84 -1.85,-2.758 -4.91,-2.758 -2.15,0 -4.6,-0.312 -7.97,-0.922 -7.05,-1.218 -9.19,-4.91 -9.8,-14.089 -0.62,-8.282 -0.62,-15.629 -0.62,-55.149 V 176.16 c 0,-23.898 0,-44.43 1.23,-55.769 0.92,-7.352 2.46,-12.262 10.73,-13.481 3.67,-0.609 9.49,-0.91 13.79,-0.91 2.75,0 4.28,-1.539 4.28,-2.77 0,-1.832 -2.15,-2.75 -5.51,-2.75 -17.47,0 -35.24,0.918 -42.59,0.918 -6.13,0 -25.13,-0.918 -35.54,-0.918 -3.68,0 -5.83,0.918 -5.83,2.75 0,1.231 1.23,2.77 4.3,2.77 4.28,0 7.35,0.301 9.8,0.91 5.51,1.219 7.04,6.129 7.96,13.789 1.23,11.031 1.23,30.949 1.23,54.852 v 19.91 c 0,0.918 -0.92,1.527 -1.53,1.527 h -101.73 c -0.92,0 -1.84,-0.297 -1.84,-1.527 v -19.91 c 0,-23.903 0.32,-43.821 1.54,-55.16 0.92,-7.352 2.45,-12.262 10.42,-13.481 3.67,-0.609 9.8,-0.91 13.79,-0.91 3.06,0 4.28,-1.539 4.28,-2.77 0,-1.832 -2.15,-2.75 -5.51,-2.75 -17.47,0 -36.16,0.918 -43.81,0.918 -6.14,0 -23.91,-0.918 -34.63,-0.918 -3.37,0 -5.21,0.918 -5.21,2.75 0,1.231 0.92,2.77 4.29,2.77 3.98,0 7.05,0.301 9.5,0.91 5.52,1.219 7.04,6.129 7.96,13.789 1.23,11.031 1.23,31.563 1.23,55.461 v 45.961 c 0,39.52 0,46.867 -0.3,55.149 -0.62,8.878 -3.07,11.652 -11.65,14.089 -2.14,0.61 -6.74,0.922 -10.72,0.922 -2.76,0 -4.59,0.918 -4.59,2.758 0,1.832 2.13,2.449 5.82,2.449 14.39,0 32.16,-0.617 39.52,-0.617 6.43,0 25.12,0.617 35.85,0.617 3.67,0 5.52,-0.617 5.52,-2.449 0,-1.84 -1.54,-2.758 -4.91,-2.758 -2.15,0 -4.6,-0.312 -7.66,-0.922 -7.36,-1.218 -9.5,-4.91 -10.11,-14.089 -0.62,-8.282 -0.62,-17.77 -0.62,-57.301 v -5.52 c 0,-1.527 0.92,-1.828 1.84,-1.828 h 101.73"
         style="fill:#ed1c24;fill-opacity:1;fill-rule:nonzero;stroke:none"
         id="path106"
         inkscape:connector-curvature="0" /><path
         d="m 2440.83,222.121 c 0,39.52 0.3,46.867 -0.32,55.149 -0.6,9.179 -3.05,11.652 -11.64,14.089 -2.15,0.61 -6.74,0.922 -10.42,0.922 -3.05,0 -4.59,0.918 -4.59,2.758 0,1.832 1.84,2.449 5.82,2.449 14.41,0 32.48,-0.617 40.44,-0.617 6.75,0 24.83,0.617 34.63,0.617 3.99,0 5.82,-0.617 5.82,-2.449 0,-1.84 -1.53,-2.758 -4.29,-2.758 -3.06,0 -4.6,-0.312 -7.96,-0.922 -7.06,-1.218 -9.19,-4.91 -9.81,-14.089 -0.61,-8.282 -0.61,-15.629 -0.61,-55.149 v -36.473 c 0,-37.976 7.35,-52.687 20.52,-63.109 11.96,-9.5 24.83,-10.418 34.02,-10.418 11.64,0 25.43,3.367 36.15,13.789 15.01,14.09 15.62,36.77 15.62,63.43 v 32.781 c 0,39.52 -0.3,46.867 -0.61,55.149 -0.61,8.878 -2.76,11.652 -11.33,14.089 -2.15,0.61 -6.75,0.922 -9.8,0.922 -3.07,0 -4.6,0.918 -4.6,2.758 0,1.832 1.83,2.449 5.51,2.449 13.79,0 31.87,-0.617 32.17,-0.617 3.07,0 21.14,0.617 31.56,0.617 3.68,0 5.51,-0.617 5.51,-2.449 0,-1.84 -1.52,-2.758 -4.59,-2.758 -3.06,0 -4.6,-0.312 -7.97,-0.922 -7.35,-1.218 -9.19,-4.91 -9.8,-14.089 -0.3,-8.282 -0.62,-15.629 -0.62,-55.149 v -27.883 c 0,-29.109 -3.05,-59.758 -25.73,-78.437 -18.99,-15.9416 -39.53,-18.6916 -56.99,-18.6916 -14.09,0 -41.97,0.6094 -61.58,17.7616 -13.79,11.957 -24.51,31.258 -24.51,68.949 v 38.301"
         style="fill:#ed1c24;fill-opacity:1;fill-rule:nonzero;stroke:none"
         id="path108"
         inkscape:connector-curvature="0" /><path
         d="m 2673.71,222.121 c 0,39.52 0.3,46.867 -0.32,55.149 -0.6,9.179 -3.05,11.652 -11.64,14.089 -2.14,0.61 -6.74,0.922 -10.42,0.922 -3.05,0 -4.59,0.918 -4.59,2.758 0,1.832 1.84,2.449 5.82,2.449 14.4,0 32.48,-0.617 40.44,-0.617 6.75,0 24.83,0.617 34.63,0.617 3.99,0 5.82,-0.617 5.82,-2.449 0,-1.84 -1.53,-2.758 -4.28,-2.758 -3.07,0 -4.6,-0.312 -7.97,-0.922 -7.05,-1.218 -9.19,-4.91 -9.81,-14.089 -0.61,-8.282 -0.61,-15.629 -0.61,-55.149 v -36.473 c 0,-37.976 7.35,-52.687 20.52,-63.109 11.96,-9.5 24.83,-10.418 34.02,-10.418 11.64,0 25.43,3.367 36.15,13.789 15.02,14.09 15.62,36.77 15.62,63.43 v 32.781 c 0,39.52 -0.3,46.867 -0.6,55.149 -0.62,8.878 -2.76,11.652 -11.34,14.089 -2.15,0.61 -6.75,0.922 -9.8,0.922 -3.07,0 -4.6,0.918 -4.6,2.758 0,1.832 1.83,2.449 5.51,2.449 13.79,0 31.87,-0.617 32.17,-0.617 3.07,0 21.15,0.617 31.57,0.617 3.67,0 5.51,-0.617 5.51,-2.449 0,-1.84 -1.53,-2.758 -4.6,-2.758 -3.06,0 -4.6,-0.312 -7.97,-0.922 -7.35,-1.218 -9.19,-4.91 -9.8,-14.089 -0.3,-8.282 -0.62,-15.629 -0.62,-55.149 v -27.883 c 0,-29.109 -3.05,-59.758 -25.73,-78.437 -18.99,-15.9416 -39.52,-18.6916 -56.99,-18.6916 -14.09,0 -41.97,0.6094 -61.58,17.7616 -13.79,11.957 -24.51,31.258 -24.51,68.949 v 38.301"
         style="fill:#ed1c24;fill-opacity:1;fill-rule:nonzero;stroke:none"
         id="path110"
         inkscape:connector-curvature="0" /><path
         d="m 2946.42,201.891 c 0,-2.75 0.62,-3.68 2.45,-4.602 5.82,-1.828 13.79,-2.449 20.53,-2.449 10.72,0 14.4,0.93 18.99,4.301 8.28,5.82 17.47,17.16 17.47,38.597 0,36.774 -25.12,46.274 -41.05,46.274 -6.75,0 -13.18,-0.313 -15.94,-0.922 -1.83,-0.61 -2.45,-1.539 -2.45,-3.68 z m -34.32,20.23 c 0,39.52 0,46.867 -0.3,55.149 -0.61,8.878 -3.06,11.652 -11.65,14.089 -2.14,0.61 -6.74,0.922 -10.72,0.922 -2.76,0 -4.59,0.918 -4.59,2.758 0,1.832 2.14,2.449 6.12,2.449 14.09,0 31.25,-0.617 36.77,-0.617 9.19,0 33.7,0.617 41.98,0.617 17.15,0 36.76,-1.527 51.16,-11.039 7.67,-5.199 19,-18.371 19,-35.84 0,-19.3 -11.03,-36.461 -37.37,-57.597 23.89,-29.422 42.89,-53.012 59.13,-69.25 15.01,-15.012 24.51,-16.231 28.79,-17.16 2.77,-0.602 4.29,-0.602 6.44,-0.602 2.15,0 3.37,-1.539 3.37,-2.77 0,-2.14 -1.84,-2.75 -5.21,-2.75 h -25.74 c -15.01,0 -22.36,1.532 -29.41,5.2 -11.64,5.82 -21.75,18.082 -36.77,38.3 -10.72,14.098 -22.06,31.571 -25.43,35.551 -1.53,1.528 -3.06,1.84 -4.9,1.84 l -24.2,0.609 c -1.23,0 -2.15,-0.609 -2.15,-2.152 v -3.668 c 0,-24.211 0.3,-44.43 1.53,-55.461 0.92,-7.66 2.15,-12.57 10.42,-13.789 3.98,-0.609 9.81,-0.91 13.18,-0.91 2.14,0 3.37,-1.539 3.37,-2.77 0,-1.832 -2.15,-2.75 -5.52,-2.75 -15.63,0 -37.99,0.918 -41.97,0.918 -5.22,0 -22.38,-0.918 -33.1,-0.918 -3.37,0 -5.2,0.918 -5.2,2.75 0,1.231 0.91,2.77 4.28,2.77 3.99,0 7.05,0.301 9.51,0.91 5.5,1.219 7.04,6.129 7.96,13.789 1.22,11.031 1.22,31.563 1.22,55.461 v 45.961"
         style="fill:#ed1c24;fill-opacity:1;fill-rule:nonzero;stroke:none"
         id="path112"
         inkscape:connector-curvature="0" /><path
         d="m 56.3281,281.27 c 0,59.039 0,69.921 -0.7773,82.351 -0.7735,13.219 -3.8828,19.43 -16.7031,22.149 -3.1094,0.769 -9.711,1.16 -15.1524,1.16 -4.2734,0 -6.6055,0.781 -6.6055,3.5 0,2.718 2.7188,3.5 8.5508,3.5 20.5899,0 45.0625,-1.168 55.1641,-1.168 9.3242,0 33.8003,1.168 48.9533,1.168 5.433,0 8.152,-0.782 8.152,-3.5 0,-2.719 -2.328,-3.5 -6.992,-3.5 -4.273,0 -6.602,-0.391 -11.266,-1.16 -10.488,-1.942 -13.597,-8.54 -14.375,-22.149 -0.773,-12.43 -0.773,-23.312 -0.773,-82.351 v -71.879 c 0,-16.7 1.164,-35.352 1.164,-54.77 0,-22.141 -1.559,-47 -9.3242,-68.7616 C 88.1836,62.1602 67.5977,35.3516 30.3008,12.4297 25.25,9.33203 19.0313,6.21875 10.875,2.33203 8.15625,0.78125 5.05078,0 3.10547,0 1.55078,0 0,1.16016 0,3.10938 0,5.05078 1.94531,6.60156 8.54297,10.1016 13.5938,12.8203 19.4219,17.0898 27.1914,24.8594 56.7188,54.7813 56.3281,93.6211 56.3281,169.77 v 111.5"
         style="fill:#292726;fill-opacity:1;fill-rule:nonzero;stroke:none"
         id="path114"
         inkscape:connector-curvature="0" /><path
         d="m 198.121,281.27 c 0,59.039 0,69.921 -0.777,82.351 -0.778,13.219 -3.887,19.43 -16.703,22.149 -3.114,0.769 -9.711,1.16 -15.153,1.16 -4.273,0 -6.605,0.781 -6.605,3.5 0,2.718 2.719,3.5 8.551,3.5 20.589,0 45.062,-1.168 55.941,-1.168 15.926,0 38.461,1.168 56.328,1.168 48.563,0 66.043,-16.321 72.262,-22.141 8.543,-8.168 19.422,-25.648 19.422,-46.23 0,-55.168 -40.403,-94.02 -95.567,-94.02 -1.941,0 -6.215,0 -8.16,0.391 -1.941,0.379 -4.664,0.769 -4.664,3.5 0,3.101 2.723,4.269 10.883,4.269 21.75,0 52.055,24.473 52.055,64.102 0,12.82 -1.164,38.847 -22.922,58.269 -13.985,12.821 -29.91,15.16 -38.848,15.16 -5.828,0 -11.652,-0.39 -15.148,-1.558 -1.946,-0.781 -3.114,-3.113 -3.114,-7.383 V 212.891 c 0,-35.743 0,-66.43 1.946,-83.129 1.168,-10.883 3.496,-19.43 15.148,-20.981 5.442,-0.781 13.984,-1.551 19.817,-1.551 4.273,0 6.214,-1.179 6.214,-3.121 0,-2.711 -3.109,-3.879 -7.382,-3.879 -25.637,0 -50.114,1.168 -60.215,1.168 -8.934,0 -33.407,-1.168 -48.95,-1.168 -5.046,0 -7.769,1.168 -7.769,3.879 0,1.942 1.555,3.121 6.219,3.121 5.824,0 10.484,0.77 13.98,1.551 7.77,1.551 9.715,10.098 11.266,21.367 1.945,16.313 1.945,47 1.945,82.743 v 68.379"
         style="fill:#292726;fill-opacity:1;fill-rule:nonzero;stroke:none"
         id="path116"
         inkscape:connector-curvature="0" /></g></g></svg>