<svg xmlns="http://www.w3.org/2000/svg" version="1.1" xmlns:xlink="http://www.w3.org/1999/xlink" width="200" height="200"><svg xmlns="http://www.w3.org/2000/svg" version="1.1" xmlns:xlink="http://www.w3.org/1999/xlink" viewBox="0 0 200 200"><rect width="200" height="200" fill="url('#gradient')"></rect><defs><linearGradient id="SvgjsLinearGradient1001" gradientTransform="rotate(272 0.5 0.5)"><stop offset="0%" stop-color="#64ffda"></stop><stop offset="100%" stop-color="#000000"></stop></linearGradient></defs><g><g fill="#000000" transform="matrix(1.1644633972992182,0,0,1.1644633972992182,11.215370329822647,108.61937282727641)" stroke="#000000" stroke-width="0"><path d="M13.12-7.47L13.12-6.82Q13.12-4.74 12.34-3.13Q11.57-1.53 10.15-0.67Q8.73 0.20 6.91 0.20Q5.10 0.20 3.69-0.64Q2.29-1.47 1.50-3.03Q0.71-4.58 0.67-6.59L0.67-6.59L0.67-7.39Q0.67-9.48 1.44-11.08Q2.21-12.68 3.64-13.54Q5.07-14.41 6.89-14.41L6.89-14.41Q8.70-14.41 10.12-13.55Q11.53-12.70 12.32-11.11Q13.11-9.52 13.12-7.47L13.12-7.47ZM9.63-6.76L9.63-7.41Q9.63-9.53 8.92-10.63Q8.21-11.73 6.89-11.73L6.89-11.73Q4.32-11.73 4.17-7.86L4.17-7.86L4.16-6.82Q4.16-4.73 4.85-3.60Q5.55-2.48 6.91-2.48L6.91-2.48Q8.21-2.48 8.92-3.58Q9.62-4.69 9.63-6.76L9.63-6.76ZM14.33-4.82L14.32-5.38Q14.32-6.96 14.93-8.20Q15.55-9.43 16.70-10.10Q17.85-10.76 19.40-10.76L19.40-10.76Q21.78-10.76 23.14-9.29Q24.51-7.82 24.51-5.29L24.51-5.29L24.51-5.18Q24.51-2.71 23.14-1.25Q21.77 0.20 19.42 0.20L19.42 0.20Q17.17 0.20 15.80-1.16Q14.43-2.51 14.33-4.82L14.33-4.82ZM17.62-5.77L17.61-5.18Q17.61-3.71 18.07-3.03Q18.53-2.34 19.42-2.34L19.42-2.34Q21.18-2.34 21.22-5.05L21.22-5.05L21.22-5.38Q21.22-8.22 19.40-8.22L19.40-8.22Q17.75-8.22 17.62-5.77L17.62-5.77ZM31.49-2.97L31.49-2.97Q31.49-3.39 31.05-3.64Q30.62-3.90 29.38-4.17Q28.15-4.44 27.35-4.89Q26.55-5.33 26.13-5.97Q25.71-6.60 25.71-7.42L25.71-7.42Q25.71-8.88 26.91-9.82Q28.12-10.76 30.06-10.76L30.06-10.76Q32.15-10.76 33.42-9.81Q34.69-8.87 34.69-7.32L34.69-7.32L31.39-7.32Q31.39-8.59 30.05-8.59L30.05-8.59Q29.53-8.59 29.18-8.31Q28.83-8.02 28.83-7.59L28.83-7.59Q28.83-7.15 29.26-6.88Q29.69-6.60 30.63-6.43Q31.57-6.25 32.29-6.01L32.29-6.01Q34.67-5.19 34.67-3.07L34.67-3.07Q34.67-1.62 33.38-0.71Q32.10 0.20 30.06 0.20L30.06 0.20Q28.70 0.20 27.64-0.29Q26.57-0.78 25.98-1.62Q25.38-2.46 25.38-3.39L25.38-3.39L28.46-3.39Q28.48-2.66 28.95-2.32Q29.41-1.98 30.15-1.98L30.15-1.98Q30.82-1.98 31.16-2.26Q31.49-2.53 31.49-2.97ZM36.75-13.19L40.04-13.19L40.04-10.57L41.78-10.57L41.78-8.28L40.04-8.28L40.04-3.45Q40.04-2.85 40.25-2.62Q40.47-2.38 41.10-2.38L41.10-2.38Q41.59-2.38 41.92-2.44L41.92-2.44L41.92-0.09Q41.04 0.20 40.07 0.20L40.07 0.20Q38.37 0.20 37.56-0.61Q36.75-1.41 36.75-3.04L36.75-3.04L36.75-8.28L35.40-8.28L35.40-10.57L36.75-10.57L36.75-13.19ZM48.18 0.20L48.18 0.20Q45.75 0.20 44.25-1.25Q42.74-2.71 42.74-5.03L42.74-5.03L42.74-5.30Q42.74-6.92 43.34-8.16Q43.95-9.40 45.10-10.08Q46.25-10.76 47.83-10.76L47.83-10.76Q50.06-10.76 51.35-9.38Q52.64-8.00 52.64-5.53L52.64-5.53L52.64-4.25L46.09-4.25Q46.27-3.36 46.87-2.85Q47.46-2.34 48.41-2.34L48.41-2.34Q49.97-2.34 50.85-3.44L50.85-3.44L52.35-1.66Q51.74-0.81 50.61-0.31Q49.48 0.20 48.18 0.20ZM47.81-8.22L47.81-8.22Q46.37-8.22 46.09-6.31L46.09-6.31L49.41-6.31L49.41-6.56Q49.43-7.35 49.01-7.79Q48.59-8.22 47.81-8.22ZM60.41-10.64L60.35-7.59L59.27-7.67Q57.71-7.67 57.28-6.69L57.28-6.69L57.28 0L53.98 0L53.98-10.57L57.07-10.57L57.18-9.21Q58.01-10.76 59.49-10.76L59.49-10.76Q60.02-10.76 60.41-10.64L60.41-10.64ZM60.78-4.82L60.77-5.38Q60.77-6.96 61.39-8.20Q62.00-9.43 63.15-10.10Q64.31-10.76 65.86-10.76L65.86-10.76Q68.23-10.76 69.60-9.29Q70.97-7.82 70.97-5.29L70.97-5.29L70.97-5.18Q70.97-2.71 69.59-1.25Q68.22 0.20 65.88 0.20L65.88 0.20Q63.62 0.20 62.26-1.16Q60.89-2.51 60.78-4.82L60.78-4.82ZM64.07-5.77L64.06-5.18Q64.06-3.71 64.52-3.03Q64.98-2.34 65.88-2.34L65.88-2.34Q67.64-2.34 67.68-5.05L67.68-5.05L67.68-5.38Q67.68-8.22 65.86-8.22L65.86-8.22Q64.21-8.22 64.07-5.77L64.07-5.77ZM72.44-10.57L75.53-10.57L75.63-9.33Q76.76-10.76 78.65-10.76L78.65-10.76Q80.65-10.76 81.36-9.17L81.36-9.17Q82.43-10.76 84.46-10.76L84.46-10.76Q87.68-10.76 87.76-6.88L87.76-6.88L87.76 0L84.46 0L84.46-6.67Q84.46-7.48 84.19-7.85Q83.92-8.22 83.19-8.22L83.19-8.22Q82.22-8.22 81.74-7.35L81.74-7.35L81.75-7.22L81.75 0L78.45 0L78.45-6.65Q78.45-7.48 78.18-7.85Q77.92-8.22 77.18-8.22L77.18-8.22Q76.23-8.22 75.73-7.35L75.73-7.35L75.73 0L72.44 0L72.44-10.57ZM102.11-3.78L102.11-3.78Q102.11-4.53 101.58-4.95Q101.04-5.37 99.71-5.82Q98.37-6.27 97.52-6.69L97.52-6.69Q94.76-8.05 94.76-10.42L94.76-10.42Q94.76-11.60 95.44-12.50Q96.13-13.41 97.39-13.91Q98.65-14.41 100.22-14.41L100.22-14.41Q101.76-14.41 102.97-13.87Q104.19-13.32 104.86-12.31Q105.54-11.30 105.54-10L105.54-10L102.12-10Q102.12-10.87 101.59-11.35Q101.05-11.83 100.15-11.83L100.15-11.83Q99.23-11.83 98.70-11.42Q98.16-11.02 98.16-10.39L98.16-10.39Q98.16-9.84 98.75-9.40Q99.34-8.96 100.81-8.48Q102.29-8.01 103.23-7.46L103.23-7.46Q105.54-6.13 105.54-3.80L105.54-3.80Q105.54-1.93 104.13-0.87Q102.72 0.20 100.27 0.20L100.27 0.20Q98.54 0.20 97.14-0.42Q95.74-1.04 95.03-2.12Q94.33-3.20 94.33-4.61L94.33-4.61L97.76-4.61Q97.76-3.47 98.35-2.92Q98.95-2.38 100.27-2.38L100.27-2.38Q101.12-2.38 101.62-2.75Q102.11-3.12 102.11-3.78ZM107.69-13.19L110.98-13.19L110.98-10.57L112.71-10.57L112.71-8.28L110.98-8.28L110.98-3.45Q110.98-2.85 111.19-2.62Q111.41-2.38 112.04-2.38L112.04-2.38Q112.53-2.38 112.86-2.44L112.86-2.44L112.86-0.09Q111.97 0.20 111.01 0.20L111.01 0.20Q109.31 0.20 108.50-0.61Q107.69-1.41 107.69-3.04L107.69-3.04L107.69-8.28L106.34-8.28L106.34-10.57L107.69-10.57L107.69-13.19ZM120.40 0L120.30-1.14Q119.26 0.20 117.48 0.20L117.48 0.20Q115.74 0.20 114.85-0.82Q113.96-1.83 113.96-3.72L113.96-3.72L113.96-10.57L117.25-10.57L117.25-3.70Q117.25-2.34 118.56-2.34L118.56-2.34Q119.70-2.34 120.18-3.15L120.18-3.15L120.18-10.57L123.49-10.57L123.49 0L120.40 0ZM124.87-5.36L124.87-5.36Q124.87-7.87 125.96-9.32Q127.04-10.76 128.98-10.76L128.98-10.76Q130.40-10.76 131.37-9.65L131.37-9.65L131.37-15L134.67-15L134.67 0L131.71 0L131.54-1.13Q130.53 0.20 128.96 0.20L128.96 0.20Q127.08 0.20 125.98-1.25Q124.87-2.70 124.87-5.36ZM128.17-5.76L128.16-5.16Q128.16-2.34 129.80-2.34L129.80-2.34Q130.90-2.34 131.37-3.26L131.37-3.26L131.37-7.29Q130.92-8.22 129.82-8.22L129.82-8.22Q128.30-8.22 128.17-5.76L128.17-5.76ZM140.01-10.57L140.01 0L136.71 0L136.71-10.57L140.01-10.57ZM136.51-13.29L136.51-13.29Q136.51-13.99 137.02-14.44Q137.53-14.89 138.34-14.89Q139.15-14.89 139.66-14.44Q140.17-13.99 140.17-13.29Q140.17-12.59 139.66-12.14Q139.15-11.69 138.34-11.69Q137.53-11.69 137.02-12.14Q136.51-12.59 136.51-13.29ZM141.63-4.82L141.62-5.38Q141.62-6.96 142.24-8.20Q142.85-9.43 144.00-10.10Q145.16-10.76 146.71-10.76L146.71-10.76Q149.08-10.76 150.45-9.29Q151.82-7.82 151.82-5.29L151.82-5.29L151.82-5.18Q151.82-2.71 150.44-1.25Q149.07 0.20 146.73 0.20L146.73 0.20Q144.47 0.20 143.11-1.16Q141.74-2.51 141.63-4.82L141.63-4.82ZM144.92-5.77L144.91-5.18Q144.91-3.71 145.37-3.03Q145.83-2.34 146.73-2.34L146.73-2.34Q148.49-2.34 148.53-5.05L148.53-5.05L148.53-5.38Q148.53-8.22 146.71-8.22L146.71-8.22Q145.06-8.22 144.92-5.77L144.92-5.77Z"></path></g></g></svg><style>@media (prefers-color-scheme: light) { :root { filter: none; } }
@media (prefers-color-scheme: dark) { :root { filter: none; } }
</style></svg>